P3
80 45
255
220 235 255
220 235 255
220 235 255
220 235 255
220 235 255
220 235 255
220 235 255
220 235 255
220 235 255
220 235 255
220 235 255
220 235 255
220 235 255
220 235 255
220 235 255
220 235 255
220 235 255
220 235 255
220 235 255
220 235 255
220 235 255
220 235 255
220 235 255
220 235 255
220 235 255
220 235 255
220 235 255
220 235 255
220 235 255
220 235 255
220 235 255
220 235 255
220 235 255
220 235 255
220 235 255
220 235 255
220 235 255
220 235 255
220 235 255
220 235 255
220 235 255
220 235 255
220 235 255
220 235 255
220 235 255
220 235 255
220 235 255
220 235 255
220 235 255
220 235 255
220 235 255
220 235 255
220 235 255
220 235 255
220 235 255
220 235 255
220 235 255
220 235 255
220 235 255
220 235 255
220 235 255
220 235 255
220 235 255
220 235 255
220 235 255
220 235 255
220 235 255
220 235 255
220 235 255
220 235 255
220 235 255
220 235 255
220 235 255
220 235 255
220 235 255
220 235 255
220 235 255
220 235 255
220 235 255
220 235 255
220 235 255
220 235 255
220 235 255
220 235 255
220 235 255
220 235 255
220 235 255
220 235 255
220 235 255
220 235 255
220 235 255
220 235 255
220 235 255
220 235 255
220 235 255
220 235 255
220 235 255
220 235 255
220 235 255
220 235 255
220 235 255
220 235 255
220 235 255
220 235 255
220 235 255
220 235 255
220 235 255
220 235 255
220 235 255
220 235 255
220 235 255
220 235 255
220 235 255
220 235 255
220 235 255
220 235 255
220 235 255
220 235 255
220 235 255
220 235 255
220 235 255
220 235 255
220 235 255
220 235 255
220 235 255
220 235 255
220 235 255
220 235 255
220 235 255
220 235 255
220 235 255
220 235 255
220 235 255
220 235 255
220 235 255
220 235 255
220 235 255
220 235 255
220 235 255
220 235 255
220 235 255
220 235 255
220 235 255
220 235 255
220 235 255
220 235 255
220 235 255
220 235 255
220 235 255
220 235 255
220 235 255
220 235 255
220 235 255
220 235 255
220 235 255
220 235 255
220 235 255
220 235 255
220 235 255
220 235 255
221 235 255
221 235 255
221 235 255
221 235 255
221 235 255
221 235 255
221 235 255
221 235 255
221 235 255
221 235 255
221 235 255
221 235 255
221 235 255
221 235 255
221 235 255
221 235 255
221 235 255
221 235 255
221 235 255
221 235 255
221 235 255
221 235 255
221 235 255
221 235 255
221 235 255
221 235 255
221 235 255
221 235 255
221 235 255
221 235 255
221 235 255
221 235 255
221 235 255
221 235 255
221 235 255
221 235 255
221 235 255
221 235 255
221 235 255
221 235 255
221 235 255
221 235 255
221 235 255
221 235 255
221 235 255
221 235 255
221 235 255
221 235 255
221 235 255
221 235 255
221 235 255
221 235 255
221 235 255
221 235 255
221 235 255
221 235 255
221 235 255
221 235 255
221 235 255
221 235 255
221 235 255
221 235 255
221 235 255
221 235 255
221 235 255
221 235 255
221 235 255
221 235 255
221 235 255
221 235 255
221 235 255
221 235 255
221 235 255
221 235 255
221 235 255
221 235 255
221 235 255
221 235 255
221 235 255
221 235 255
221 235 255
221 235 255
221 235 255
221 235 255
221 235 255
221 235 255
221 235 255
221 235 255
221 235 255
221 235 255
221 235 255
221 235 255
221 235 255
221 235 255
221 235 255
221 235 255
221 235 255
221 235 255
221 235 255
221 235 255
221 235 255
221 235 255
221 235 255
221 235 255
221 235 255
221 235 255
221 235 255
221 235 255
221 235 255
221 235 255
221 235 255
221 235 255
221 235 255
221 235 255
221 235 255
221 235 255
221 235 255
221 235 255
221 235 255
221 235 255
221 235 255
221 235 255
221 235 255
221 235 255
221 235 255
221 235 255
221 235 255
221 235 255
221 235 255
221 235 255
221 235 255
221 235 255
221 235 255
221 235 255
221 235 255
221 235 255
221 235 255
221 235 255
221 235 255
221 235 255
221 235 255
221 235 255
221 235 255
221 235 255
221 235 255
221 235 255
221 235 255
221 235 255
221 235 255
221 235 255
221 235 255
221 235 255
221 235 255
221 235 255
221 235 255
221 235 255
221 235 255
221 235 255
221 235 255
221 235 255
221 236 255
221 236 255
221 236 255
221 236 255
221 236 255
221 236 255
221 236 255
221 236 255
221 236 255
221 236 255
221 236 255
221 236 255
221 236 255
221 236 255
221 236 255
221 236 255
221 236 255
221 236 255
221 236 255
221 236 255
221 236 255
221 236 255
221 236 255
221 236 255
221 236 255
221 236 255
221 236 255
221 236 255
221 236 255
221 236 255
206 216 233
179 181 189
147 135 132
160 155 158
185 188 199
211 223 241
208 223 243
213 229 251
178 194 217
167 181 202
189 207 230
201 217 239
208 223 243
215 228 247
221 236 255
221 236 255
221 236 255
219 232 251
206 216 230
202 212 226
192 200 212
199 208 221
181 188 197
213 226 243
204 213 226
214 226 243
221 236 255
221 236 255
221 236 255
221 236 255
221 236 255
221 236 255
221 236 255
221 236 255
221 236 255
221 236 255
221 236 255
221 236 255
221 236 255
221 236 255
221 236 255
221 236 255
221 236 255
221 236 255
221 236 255
221 236 255
221 236 255
221 236 255
221 236 255
221 236 255
222 236 255
222 236 255
222 236 255
222 236 255
222 236 255
222 236 255
222 236 255
222 236 255
222 236 255
222 236 255
222 236 255
221 236 255
222 236 255
222 236 255
222 236 255
222 236 255
222 236 255
222 236 255
222 236 255
222 236 255
222 236 255
222 236 255
222 236 255
222 236 255
222 236 255
222 236 255
222 236 255
211 223 241
195 202 216
140 124 117
123 99 80
121 96 78
123 98 79
118 95 78
139 125 122
159 173 195
140 159 186
126 142 164
128 145 170
144 165 192
122 139 166
121 137 158
156 177 204
157 172 192
199 206 222
212 223 239
191 200 212
170 175 181
166 173 181
165 172 181
160 170 181
161 170 181
162 170 181
164 171 181
165 172 181
168 173 181
189 197 207
203 212 226
222 236 255
222 236 255
222 236 255
222 236 255
222 236 255
222 236 255
222 236 255
221 236 255
222 236 255
222 236 255
222 236 255
222 236 255
222 236 255
222 236 255
221 236 255
222 236 255
222 236 255
222 236 255
222 236 255
221 236 255
222 236 255
222 236 255
222 236 255
222 236 255
222 236 255
222 236 255
222 236 255
222 236 255
222 236 255
222 236 255
222 236 255
222 236 255
222 236 255
222 236 255
222 236 255
222 236 255
222 236 255
222 236 255
222 236 255
222 236 255
222 236 255
222 236 255
222 236 255
222 236 255
222 236 255
222 236 255
222 236 255
222 236 255
222 236 255
188 194 206
119 94 75
122 97 78
116 92 74
125 99 80
123 98 80
142 141 148
112 124 141
97 101 112
75 77 87
116 130 151
117 131 152
118 132 152
125 141 165
108 121 139
121 135 158
129 144 168
173 179 191
172 178 186
164 172 181
160 170 181
157 168 181
156 168 181
154 167 181
155 167 181
155 167 181
156 168 181
158 169 181
159 169 181
163 171 181
166 173 181
187 193 202
211 223 239
222 236 255
222 236 255
222 236 255
222 236 255
222 236 255
222 236 255
222 236 255
222 236 255
222 236 255
222 236 255
222 236 255
222 236 255
222 236 255
222 236 255
222 236 255
222 236 255
222 236 255
222 236 255
222 236 255
222 236 255
222 236 255
222 236 255
222 236 255
222 236 255
222 236 255
222 236 255
222 236 255
222 236 255
222 236 255
222 236 255
222 236 255
222 236 255
222 236 255
222 236 255
222 236 255
222 236 255
222 236 255
222 236 255
222 236 255
222 236 255
222 236 255
222 236 255
222 236 255
222 236 255
222 236 255
222 236 255
192 196 208
130 116 112
123 97 78
116 92 74
114 90 73
125 98 79
161 172 190
136 154 166
72 63 66
86 84 93
123 136 159
120 132 148
127 145 170
124 142 164
110 124 144
117 114 132
144 139 155
169 171 176
167 173 181
163 171 181
159 169 181
156 168 181
154 167 181
153 166 181
152 166 181
152 166 181
152 166 181
152 166 181
154 167 181
155 168 181
158 169 181
161 170 181
166 173 181
178 181 186
212 223 239
222 236 255
222 236 255
222 236 255
222 236 255
222 236 255
222 236 255
222 236 255
222 236 255
222 236 255
222 236 255
222 236 255
222 236 255
222 236 255
222 236 255
222 236 255
222 236 255
222 236 255
222 236 255
222 236 255
222 236 255
222 236 255
222 236 255
222 236 255
222 236 255
222 236 255
222 236 255
222 236 255
222 236 255
222 236 255
222 236 255
222 236 255
222 236 255
222 236 255
222 236 255
222 236 255
222 236 255
222 236 255
222 236 255
222 236 255
222 236 255
222 236 255
222 236 255
222 236 255
222 236 255
222 236 255
152 142 144
121 95 76
112 89 72
128 99 79
119 93 75
124 113 110
151 169 176
140 160 144
114 128 148
119 135 156
133 151 172
128 146 169
126 145 169
128 144 165
113 130 150
121 132 130
175 177 181
168 174 181
162 171 181
160 169 181
157 168 181
155 167 181
153 166 181
152 166 181
151 166 181
151 165 181
151 166 181
152 166 181
153 166 181
155 167 181
156 168 181
159 169 181
162 171 181
166 173 181
172 176 181
205 213 226
222 236 255
222 236 255
222 236 255
222 236 255
222 236 255
222 236 255
222 236 255
222 236 255
222 236 255
222 236 255
222 236 255
222 236 255
222 236 255
222 236 255
222 236 255
222 236 255
222 236 255
222 236 255
223 236 255
223 236 255
223 236 255
223 236 255
223 236 255
223 236 255
223 236 255
223 236 255
223 236 255
223 236 255
223 236 255
223 236 255
223 236 255
223 236 255
223 236 255
223 236 255
223 236 255
223 236 255
223 236 255
223 236 255
223 236 255
223 236 255
223 236 255
223 236 255
223 236 255
218 230 248
111 87 71
109 86 69
113 89 68
108 86 69
124 106 95
139 154 176
126 136 140
143 163 171
131 150 175
118 131 152
114 126 145
124 140 158
117 133 151
84 106 104
90 100 104
176 178 181
170 175 181
165 172 181
161 170 181
159 169 181
157 168 181
155 167 181
154 167 181
153 166 181
152 166 181
152 166 181
152 166 181
152 166 181
154 167 181
155 167 181
156 168 181
158 169 181
161 170 181
165 172 181
169 174 181
174 177 181
211 221 235
223 236 255
223 236 255
223 236 255
223 236 255
223 236 255
223 236 255
223 236 255
223 236 255
223 236 255
223 236 255
223 236 255
223 236 255
223 236 255
223 236 255
223 236 255
223 236 255
223 236 255
214 228 247
218 232 251
223 236 255
223 236 255
219 232 251
223 237 255
219 232 251
214 228 247
223 236 255
214 228 247
212 225 243
218 232 251
210 224 243
214 228 247
215 228 247
206 220 239
204 219 239
200 214 235
218 232 251
206 220 239
214 228 247
219 233 251
219 232 251
200 214 235
205 219 239
173 181 195
112 89 72
121 93 75
117 92 74
114 88 69
145 133 128
142 152 167
117 120 129
130 149 175
114 129 156
68 60 65
114 131 146
116 131 150
110 122 139
73 161 103
154 159 160
172 176 181
168 174 181
165 172 181
162 171 181
160 170 181
158 169 181
156 168 181
155 167 181
155 167 181
154 167 181
154 167 181
154 167 181
155 167 181
155 167 181
156 168 181
158 169 181
159 169 181
161 170 181
164 172 181
167 173 181
172 176 181
179 179 181
205 217 235
214 228 247
214 228 247
210 224 243
210 224 243
206 220 239
209 223 243
214 228 247
219 232 251
223 237 255
223 236 255
223 237 255
223 236 255
219 232 251
223 236 255
223 236 255
223 236 255
151 169 191
151 169 191
143 162 186
156 174 197
162 179 202
156 173 197
156 173 197
160 176 197
138 157 181
146 163 186
151 168 191
154 170 191
140 157 181
138 156 181
150 168 191
159 175 197
145 163 186
144 160 181
145 163 186
145 163 186
162 179 202
153 169 191
131 150 175
145 163 186
142 161 186
119 120 129
95 74 61
94 73 59
100 76 61
118 92 73
137 133 138
102 102 115
106 113 147
122 131 156
118 121 136
81 69 69
78 67 98
116 121 152
134 152 177
140 158 161
178 179 181
173 176 181
169 174 181
166 173 181
163 171 181
162 171 181
160 170 181
159 169 181
158 169 181
157 168 181
157 168 181
156 168 181
157 168 181
157 168 181
158 169 181
158 169 181
159 169 181
161 170 181
163 171 181
165 172 181
168 174 181
171 175 181
175 177 181
164 173 186
153 169 191
151 168 191
151 168 191
150 168 191
169 185 207
145 163 186
146 163 186
142 158 181
144 160 181
150 168 191
163 179 202
154 170 191
162 179 202
157 174 197
164 180 202
163 180 202
137 156 181
136 155 181
137 156 181
133 151 175
139 157 181
139 157 181
137 156 181
137 156 181
137 156 181
135 155 181
138 155 176
137 156 181
130 147 169
141 158 181
140 157 181
138 156 181
137 156 181
136 155 181
142 158 182
137 156 181
139 157 181
142 159 181
120 137 158
136 155 181
135 155 181
121 130 147
103 80 66
107 84 67
106 84 68
116 90 71
152 161 192
128 119 179
83 88 128
136 153 175
118 77 123
117 117 130
101 85 156
92 95 128
130 147 170
162 164 169
176 178 181
173 176 181
170 175 181
168 174 181
166 173 181
164 172 181
163 171 181
162 170 181
161 170 181
160 170 181
160 170 181
160 170 181
159 169 181
160 170 181
161 170 181
162 170 181
163 171 181
163 171 181
165 172 181
167 173 181
170 174 181
172 176 181
175 177 181
181 180 181
140 155 177
128 162 158
136 155 181
132 151 175
128 140 158
102 116 120
116 117 147
134 148 175
116 124 141
117 108 113
98 148 121
65 154 91
127 157 170
140 162 167
154 189 180
120 175 169
106 146 129
117 156 144
134 153 175
140 159 173
134 153 170
132 121 135
99 82 131
108 122 175
124 141 179
134 153 178
129 129 127
126 120 112
107 118 151
119 135 166
136 153 180
122 131 173
137 156 181
149 159 179
177 152 161
146 85 68
138 157 181
111 127 145
60 74 77
103 118 132
138 156 181
123 133 152
110 84 68
105 82 64
101 77 61
106 82 68
140 154 173
156 163 175
133 129 136
106 142 146
91 101 129
101 93 98
102 104 145
129 138 155
110 123 139
181 180 181
177 178 181
175 177 181
172 175 181
170 175 181
168 174 181
168 174 181
167 173 181
165 172 181
165 172 181
164 172 181
163 171 181
164 172 181
164 172 181
164 172 181
165 172 181
165 172 181
165 172 181
167 173 181
168 174 181
170 174 181
171 175 181
174 177 181
177 178 181
180 180 181
138 150 163
120 157 152
100 163 108
132 149 169
107 120 123
15 110 4
72 91 75
145 98 127
125 108 121
153 153 204
145 141 185
65 116 84
127 148 169
117 155 131
83 145 110
15 127 73
77 140 68
49 111 22
116 130 127
121 120 124
112 129 138
107 76 78
87 64 110
57 80 141
82 104 121
74 102 152
61 102 181
105 101 94
27 37 90
54 55 113
83 66 154
88 63 174
99 118 128
84 109 88
127 83 88
118 66 100
118 130 152
109 123 138
63 74 83
113 129 146
136 129 140
113 107 91
84 80 67
104 83 63
97 75 59
86 70 54
206 213 235
214 228 248
221 235 255
222 236 255
218 232 251
217 231 251
209 223 243
200 214 235
185 193 204
181 181 181
179 179 181
177 178 181
175 177 181
173 176 181
172 176 181
171 175 181
171 175 181
169 174 181
169 174 181
168 174 181
168 174 181
168 173 181
168 174 181
168 174 181
169 174 181
169 174 181
170 175 181
170 175 181
171 175 181
173 176 181
174 177 181
176 178 181
178 179 181
181 180 181
151 151 148
140 163 167
119 149 151
81 99 101
74 93 116
53 78 113
60 51 60
143 58 72
132 56 72
134 113 135
162 125 145
142 149 174
122 141 157
129 91 86
86 104 93
53 88 84
106 137 136
123 83 117
124 51 99
110 48 92
104 119 141
101 113 163
62 73 192
53 73 56
63 85 48
69 97 116
38 73 126
47 70 109
44 71 124
82 99 137
74 58 138
83 54 164
83 71 135
148 87 111
153 65 104
147 64 108
103 111 141
116 138 137
86 110 68
121 128 150
111 136 152
54 107 83
56 78 57
93 72 56
86 71 54
91 70 58
183 195 216
218 234 255
204 219 240
214 230 251
213 227 247
219 234 255
216 231 251
219 234 255
194 197 202
183 181 181
181 180 181
179 179 181
178 179 181
177 178 181
175 177 181
175 177 181
174 177 181
174 177 181
173 176 181
172 176 181
173 176 181
172 176 181
172 176 181
173 176 181
173 176 181
173 176 181
174 176 181
174 177 181
175 177 181
176 178 181
177 178 181
179 179 181
180 180 181
182 181 181
173 174 174
152 180 194
71 99 96
46 63 30
98 113 69
105 118 77
38 55 98
128 75 116
124 99 128
121 109 126
137 112 132
132 133 153
82 107 130
57 86 122
109 87 132
74 62 190
112 137 146
121 126 150
87 35 69
106 75 103
111 122 147
55 51 195
40 26 200
62 67 168
145 167 190
153 179 211
124 139 157
63 75 138
45 58 135
35 45 109
86 93 136
81 83 130
66 55 106
104 98 157
154 134 208
126 82 122
126 131 162
54 68 132
58 42 133
75 9 67
66 75 78
58 76 40
67 78 32
89 80 53
90 72 56
91 75 55
100 101 104
197 215 239
204 220 243
210 227 249
216 233 255
210 226 247
217 233 255
210 226 247
154 157 160
185 182 181
183 181 181
182 181 181
181 180 181
180 180 181
180 180 181
178 179 181
178 179 181
178 179 181
177 178 181
177 178 181
177 178 181
177 178 181
177 178 181
177 178 181
178 178 181
178 179 181
178 179 181
179 179 181
179 179 181
180 180 181
181 180 181
181 180 181
183 181 181
184 182 181
172 169 169
41 121 63
42 125 65
61 114 72
98 110 67
94 107 77
125 77 103
140 91 137
134 88 137
126 136 159
124 138 162
90 106 146
17 31 122
46 25 117
116 85 68
141 94 40
121 138 159
123 138 159
125 134 156
124 136 159
160 174 225
155 169 252
118 131 220
66 69 158
124 142 164
126 145 168
91 104 124
120 137 164
32 41 102
60 71 125
102 114 141
126 142 165
68 60 105
127 96 185
131 101 186
119 120 164
125 132 173
74 77 172
31 38 153
47 20 82
48 34 36
59 67 28
56 65 26
81 94 103
79 128 91
54 125 53
73 116 89
191 209 235
206 226 251
208 226 251
209 227 251
210 227 251
207 225 248
214 231 255
158 163 179
127 132 133
135 138 137
174 173 170
185 182 181
184 182 181
183 181 181
183 181 181
182 181 181
182 181 181
181 180 181
181 180 181
182 181 181
181 180 181
181 180 181
181 180 181
182 181 181
182 181 181
182 181 181
182 181 181
183 181 181
183 181 181
184 182 181
184 182 181
182 179 178
153 153 153
98 105 108
136 149 168
134 155 155
98 127 126
99 114 123
98 103 107
127 73 97
98 48 136
114 58 122
134 152 176
137 153 176
83 95 133
22 12 111
9 65 94
9 99 55
14 147 70
128 125 157
134 142 171
136 155 181
132 150 178
136 146 197
142 162 203
131 176 176
139 200 189
106 130 150
83 95 109
108 124 144
118 148 164
113 129 150
119 135 158
123 138 162
112 129 154
100 88 140
102 63 130
122 100 86
121 108 50
173 177 180
137 132 138
27 33 128
115 110 127
104 89 107
87 70 76
83 94 102
97 115 109
67 120 78
49 115 47
46 106 45
152 170 196
203 222 248
194 213 240
203 222 248
199 218 243
211 230 255
211 230 255
126 135 135
82 91 94
94 95 95
100 80 109
100 116 111
154 158 158
117 120 122
128 132 130
153 149 149
155 154 155
154 154 156
172 171 171
171 170 169
150 151 153
178 176 175
167 166 166
153 154 156
166 166 166
171 169 169
159 159 159
153 154 156
157 155 155
116 124 123
113 120 122
111 113 123
107 105 107
122 86 128
113 78 186
177 176 204
157 163 181
155 157 194
144 153 184
50 45 127
32 24 147
27 20 130
107 123 160
132 143 163
86 79 136
69 45 130
76 29 77
20 118 59
12 133 65
134 31 113
135 49 118
125 126 160
101 111 132
91 82 113
82 77 64
87 106 84
119 160 141
113 145 144
127 143 166
119 182 159
116 208 163
111 191 152
128 150 170
137 156 181
129 146 170
109 120 150
92 61 103
109 101 26
126 113 29
111 101 27
100 96 113
156 158 173
171 182 203
158 162 179
109 92 106
101 111 125
91 101 113
97 116 122
107 123 122
147 157 168
172 173 192
189 212 238
194 213 242
205 227 255
200 220 248
206 227 255
200 220 247
135 138 156
78 92 91
69 81 91
70 78 93
108 118 125
102 106 113
77 76 63
115 123 127
102 105 79
94 115 102
73 104 86
96 113 108
125 117 118
103 105 132
109 109 115
75 85 95
92 123 105
118 124 137
85 95 95
90 94 94
112 83 98
87 88 96
91 96 97
86 85 84
104 93 99
87 89 92
96 95 113
131 144 132
118 106 143
179 167 207
190 182 233
190 182 233
92 83 134
23 18 119
26 20 124
123 140 169
106 121 165
22 50 152
25 57 167
53 43 122
75 95 89
48 108 78
72 30 141
122 31 119
127 129 157
76 43 53
71 21 31
69 20 28
71 52 46
80 101 84
115 147 154
115 134 155
107 185 146
95 169 133
91 159 125
112 158 148
123 136 158
121 135 162
132 150 176
73 78 115
61 66 113
81 75 78
76 68 18
122 124 132
159 170 172
140 143 153
160 156 170
106 105 122
119 132 155
112 128 140
119 134 152
189 187 205
193 197 221
193 195 217
197 197 236
194 192 247
190 188 241
200 215 253
202 225 255
188 211 236
131 140 160
89 102 104
107 112 118
83 114 110
108 113 121
97 102 111
86 86 89
92 104 98
101 110 115
85 105 90
99 109 110
97 105 111
84 117 89
83 113 89
109 121 125
95 110 115
97 103 112
80 84 110
113 117 125
88 92 101
99 53 91
114 122 130
104 109 115
74 85 74
112 99 101
73 89 85
117 99 123
129 93 123
119 128 132
112 100 119
145 134 164
134 119 159
116 110 146
93 104 126
90 102 135
112 120 161
81 52 173
71 52 170
20 45 136
40 64 160
130 147 170
127 141 170
28 27 131
61 22 103
111 104 131
73 57 67
56 16 24
60 17 26
50 14 20
82 118 107
87 149 144
91 153 146
96 165 146
82 149 113
93 165 124
115 158 152
136 155 181
125 142 165
78 92 144
24 35 111
26 37 122
89 53 91
98 75 78
114 121 138
104 108 118
107 111 116
111 111 120
104 116 135
87 100 103
41 70 49
45 74 52
99 112 111
137 136 151
119 141 184
159 166 211
161 183 201
122 183 139
110 177 110
148 196 180
181 204 237
175 198 226
67 96 92
80 88 92
69 102 96
92 104 106
93 97 103
98 104 111
103 110 117
69 88 87
48 75 72
106 113 120
104 114 114
103 115 115
91 106 102
105 113 120
78 93 96
73 89 88
115 120 128
113 120 126
107 94 106
98 5 53
121 43 130
110 109 122
113 118 126
106 111 117
119 119 123
109 85 112
116 67 117
80 108 132
103 124 146
102 95 124
118 111 145
127 141 170
129 143 174
114 128 151
92 79 165
81 46 157
81 48 162
69 44 152
92 108 152
140 160 186
135 155 181
24 23 113
108 121 144
123 140 161
103 112 130
63 42 50
56 41 48
77 85 94
80 132 127
71 106 110
75 104 116
81 124 124
78 128 110
90 126 121
125 146 166
130 147 169
125 146 163
19 28 92
25 36 118
71 42 83
85 46 52
90 47 55
102 63 74
122 132 151
109 115 127
129 143 162
126 141 160
41 66 46
39 63 44
46 74 51
52 74 60
100 125 162
85 121 167
87 128 167
97 142 181
95 158 109
95 159 96
88 158 75
115 183 128
172 204 226
72 106 101
78 99 73
59 73 88
79 88 97
111 116 122
101 106 111
104 111 119
103 110 117
90 96 100
100 105 111
108 113 119
101 104 112
110 80 91
116 92 104
78 82 84
105 111 117
97 103 110
121 123 128
95 72 86
56 6 46
97 83 108
112 117 124
106 114 121
94 106 109
74 104 93
84 49 120
71 111 133
54 118 132
50 114 128
61 124 137
119 141 155
130 142 169
129 146 172
118 131 162
72 42 143
76 43 151
76 44 146
75 44 150
132 147 177
138 156 181
128 150 170
77 42 73
121 137 161
112 124 144
122 137 158
122 137 156
115 130 152
118 134 159
70 98 108
71 90 106
60 79 92
67 89 104
97 118 130
131 151 171
132 151 176
133 151 175
129 146 169
114 130 161
19 28 89
87 45 53
94 48 57
86 44 50
85 44 51
104 117 135
119 140 162
129 146 169
131 148 173
36 58 40
44 106 90
42 115 102
56 125 115
77 116 145
80 116 149
70 102 125
81 112 149
77 124 106
76 163 42
75 165 11
64 140 9
62 132 9
108 127 130
58 75 58
45 59 49
11 36 61
97 102 107
101 107 112
107 112 117
104 110 117
98 105 109
106 111 119
107 113 119
92 83 89
88 65 72
75 66 73
103 106 111
105 113 120
110 114 122
103 105 111
107 112 117
86 81 86
94 98 104
104 101 115
95 102 109
69 94 98
41 76 76
64 30 72
42 94 107
49 106 117
58 171 132
59 197 129
58 198 130
117 165 164
128 147 173
137 156 181
93 92 141
62 35 127
83 57 143
98 103 143
133 148 170
137 156 182
127 144 168
71 151 167
74 160 178
110 154 174
129 152 175
133 151 177
128 147 171
128 146 166
85 101 118
60 78 95
64 81 95
63 80 95
66 82 96
123 141 164
131 151 176
123 142 166
124 138 160
109 124 147
79 89 112
86 74 90
72 37 45
74 38 44
81 100 113
80 118 134
77 111 124
93 119 138
116 133 155
102 127 137
52 157 142
48 150 135
46 143 129
59 141 133
68 99 130
71 109 140
86 118 158
70 114 84
69 155 10
55 129 8
58 129 9
55 121 8
108 144 130
118 131 144
60 74 52
81 84 88
88 94 100
91 96 103
104 109 116
95 98 102
109 115 122
107 111 115
107 111 116
100 101 104
104 109 115
101 104 111
104 109 116
114 118 123
99 108 112
104 107 111
102 105 108
108 113 118
105 110 115
104 105 114
86 95 99
65 79 80
63 76 86
72 70 88
40 66 77
46 124 110
52 174 112
55 182 119
58 190 123
54 177 116
130 150 176
121 137 161
104 112 139
175 152 197
182 160 211
187 163 209
165 171 198
178 203 219
145 157 203
60 125 135
46 94 97
49 100 105
98 128 143
132 150 175
130 146 169
134 152 177
102 118 139
56 72 85
60 77 91
58 73 86
96 113 129
130 149 175
127 141 163
110 130 150
133 151 175
124 142 164
121 139 165
110 119 137
78 80 92
73 82 91
68 103 114
74 107 119
72 104 116
68 100 110
99 121 138
86 125 128
45 140 125
41 127 115
43 133 118
39 120 107
70 122 135
89 128 123
90 127 113
90 120 97
66 131 26
55 130 9
54 119 8
62 135 9
114 142 142
129 148 166
104 112 120
80 85 82
111 114 117
107 115 120
93 99 102
108 112 117
101 102 104
109 112 115
111 118 124
99 102 107
104 106 109
104 108 114
102 104 107
106 109 114
102 106 111
105 112 118
96 93 101
105 107 110
102 104 113
93 99 104
91 99 102
114 129 147
104 119 141
123 141 165
87 104 120
60 125 99
50 164 103
43 143 91
42 138 94
52 130 134
60 128 141
115 142 161
167 147 181
163 137 174
186 162 211
190 163 211
179 168 202
203 226 255
200 222 251
40 80 81
45 89 89
42 82 82
40 81 82
107 125 143
118 137 159
112 127 146
92 108 126
78 87 102
55 66 77
63 75 88
112 127 147
121 138 160
129 149 171
133 150 172
132 150 175
128 145 171
129 147 170
129 144 166
127 148 167
58 142 134
49 153 141
52 157 148
64 101 106
58 85 95
102 124 141
100 122 136
36 113 101
36 112 98
38 115 101
32 100 92
39 65 104
47 80 103
76 107 91
91 130 103
74 105 76
61 116 45
42 97 6
77 118 80
126 145 169
116 136 151
117 132 149
99 103 106
101 104 108
98 102 105
102 105 109
95 99 102
105 108 112
94 97 102
106 109 114
81 84 87
97 100 103
107 112 118
107 111 115
100 102 105
95 96 98
99 103 108
100 102 105
106 107 109
97 98 101
103 107 112
119 132 150
114 130 145
112 129 151
127 144 168
125 142 164
129 148 172
55 115 86
35 118 78
43 107 119
50 118 132
53 134 150
52 128 142
94 113 128
102 96 121
141 120 153
163 133 166
159 134 168
131 150 177
128 148 173
37 74 74
38 75 76
41 80 80
38 76 75
103 120 136
130 148 171
136 156 181
131 153 178
131 149 172
135 155 181
118 141 163
131 148 171
135 153 176
128 147 170
137 156 181
137 156 181
133 151 175
126 145 169
128 145 166
73 157 153
47 171 153
43 160 145
41 150 135
44 145 132
47 96 94
125 142 165
104 127 141
77 122 122
31 102 90
30 95 83
11 44 80
14 51 96
13 47 88
14 52 96
54 80 73
72 98 74
95 119 118
106 120 130
114 132 147
116 131 149
119 140 150
123 139 151
102 114 122
86 87 88
88 91 90
92 95 97
101 105 108
94 95 96
89 85 86
96 97 100
84 87 91
81 83 85
93 93 96
102 101 105
87 88 89
97 101 106
91 92 93
82 83 84
105 105 107
102 105 108
126 141 160
133 151 175
135 153 178
132 145 167
124 139 164
120 137 160
105 122 133
67 111 99
56 105 108
38 91 99
47 114 124
45 106 121
44 109 121
72 125 142
116 100 131
126 104 135
131 107 139
113 102 127
129 147 167
131 149 173
69 90 108
129 146 194
138 156 210
112 133 168
84 106 117
133 153 178
132 152 176
137 156 181
135 152 175
123 142 165
126 145 168
134 150 172
135 155 181
131 151 176
136 155 181
137 156 181
133 151 175
119 140 166
123 147 171
62 149 145
39 142 130
40 145 130
43 158 143
37 137 123
80 120 123
97 115 131
106 126 147
96 112 125
91 113 126
49 77 88
12 45 87
14 51 95
13 47 87
13 49 91
11 40 73
72 99 76
118 134 152
131 146 168
115 133 153
120 133 151
128 147 166
126 138 155
123 138 156
110 123 140
94 99 101
71 70 69
100 102 105
77 76 75
87 86 88
84 82 82
92 96 100
88 88 88
82 81 80
92 95 97
85 85 86
100 102 103
93 94 96
87 89 90
82 86 88
121 132 148
128 140 159
119 131 146
128 141 159
129 143 163
125 141 162
129 148 172
123 139 162
124 146 164
118 141 163
33 80 85
42 98 115
44 105 121
44 107 118
70 91 114
93 88 106
75 59 77
127 73 154
133 117 172
139 134 180
137 155 178
168 183 249
158 178 249
156 177 249
163 181 249
158 170 221
120 137 159
135 155 181
127 146 170
125 143 165
129 149 175
130 150 175
131 149 172
131 151 175
128 146 171
130 148 171
136 155 181
121 142 171
116 137 172
113 136 172
113 134 168
92 120 142
54 142 135
37 134 120
37 137 123
111 134 150
128 148 170
119 140 160
124 142 162
127 144 165
99 117 144
9 37 66
12 45 84
12 45 83
11 39 72
10 35 64
68 84 90
113 127 144
125 142 163
115 127 139
122 132 145
114 129 147
104 114 128
110 123 140
115 130 146
102 111 121
96 103 111
69 68 68
66 65 63
75 74 73
66 64 61
75 73 75
115 95 113
117 103 122
95 86 99
66 62 60
90 90 90
77 77 79
83 88 95
103 114 126
121 134 151
116 129 146
136 151 172
134 147 166
127 140 160
122 138 154
116 131 147
125 141 165
115 136 155
118 133 156
71 98 113
42 105 116
38 93 102
75 87 105
118 36 87
126 30 87
130 40 131
163 30 201
157 30 208
159 30 202
151 78 193
174 187 249
172 185 249
168 184 249
174 187 249
130 140 179
111 129 155
116 133 154
131 145 165
123 125 134
118 114 110
127 136 151
133 152 178
133 154 181
117 140 156
127 147 168
134 152 177
103 119 149
100 118 147
93 114 136
105 129 156
101 115 146
61 129 127
25 101 89
78 114 118
126 142 161
120 138 160
129 147 170
131 149 172
125 144 165
125 143 166
47 65 93
12 45 82
24 61 73
41 101 101
39 93 92
67 101 103
101 110 117
108 123 140
107 122 129
98 112 123
124 139 157
113 126 143
114 125 140
75 82 88
104 112 122
78 85 92
57 56 53
58 57 62
61 63 63
80 71 79
145 120 152
145 118 149
145 119 152
149 121 154
119 101 119
74 82 82
85 91 100
92 97 106
99 102 109
109 115 128
110 126 138
111 123 138
114 127 142
104 114 128
112 125 142
130 146 166
126 144 167
113 129 146
122 139 156
97 112 130
78 102 111
73 31 59
116 25 79
118 7 78
112 6 75
131 7 83
118 12 99
132 24 166
161 30 209
150 28 193
118 134 158
155 165 216
134 145 189
108 119 156
84 96 132
114 131 155
121 128 141
112 93 79
117 99 83
118 99 83
111 94 79
119 127 143
135 154 180
136 155 181
139 157 181
120 137 157
101 132 132
112 151 143
110 149 139
101 134 131
97 118 141
64 91 104
64 98 99
79 97 109
106 128 149
110 130 150
124 141 163
128 146 169
108 127 148
104 120 142
81 94 109
46 80 92
42 102 102
42 105 101
41 103 101
45 109 108
51 94 96
103 113 127
125 138 157
121 133 149
109 120 135
117 130 147
105 117 133
90 99 108
98 106 115
107 118 132
118 130 144
98 105 116
81 87 93
121 106 132
128 109 132
146 120 150
129 105 133
144 117 148
146 118 149
86 83 95
115 124 139
109 118 134
111 118 129
117 129 145
105 125 138
74 104 109
69 102 109
87 116 127
113 130 147
110 126 137
121 137 157
105 115 131
116 131 150
112 121 144
131 149 172
126 137 162
108 6 71
107 6 72
107 6 69
119 7 78
112 6 76
137 19 140
145 26 182
143 27 185
111 122 166
102 113 157
109 120 166
103 110 154
105 114 162
129 142 161
108 91 76
103 88 74
114 97 82
107 90 77
99 83 70
114 100 89
128 151 177
132 151 175
136 154 178
108 139 137
101 137 127
113 152 141
105 144 134
104 139 125
98 133 123
119 137 163
127 147 170
122 140 162
101 118 135
121 140 161
114 135 155
133 152 175
121 138 158
118 135 158
103 117 136
38 91 89
39 94 94
44 106 104
43 108 102
40 94 92
43 103 99
109 126 145
120 136 155
132 147 168
130 147 168
129 145 166
118 130 148
123 133 148
115 128 146
117 125 137
120 132 148
111 123 140
110 121 136
120 102 126
143 114 142
127 104 131
121 100 122
121 97 122
142 115 144
80 77 93
116 128 143
99 104 114
118 125 137
81 105 115
44 92 92
42 88 90
43 90 91
43 91 92
91 113 122
121 132 156
110 119 138
86 81 100
105 116 136
126 140 162
134 150 172
137 156 181
124 112 137
110 6 72
99 5 68
112 6 73
105 6 68
111 15 113
128 23 158
135 25 166
106 118 157
90 98 144
87 95 138
106 116 150
115 129 158
125 133 151
104 88 75
96 81 69
103 87 74
98 84 70
96 83 67
105 91 74
117 129 147
134 154 180
124 144 165
106 140 128
107 144 132
106 143 132
103 138 128
104 143 129
90 126 114
101 125 131
134 153 177
124 143 165
127 145 168
132 149 171
124 146 169
130 150 175
124 140 161
127 144 165
122 145 165
40 98 95
38 92 91
45 107 106
35 87 85
43 104 100
35 87 86
114 127 143
120 138 161
134 149 169
118 132 152
126 140 157
129 143 163
114 126 141
121 135 154
109 120 140
121 136 153
91 96 107
131 145 164
123 104 127
120 97 119
109 89 110
129 104 127
139 112 140
112 93 113
132 141 165
128 141 158
108 123 138
115 130 150
50 90 91
41 86 86
43 90 91
41 88 87
42 87 86
41 86 86
89 106 116
118 114 134
87 64 82
138 153 182
131 145 164
124 136 158
119 135 155
105 104 125
86 5 58
104 5 66
108 6 71
101 5 66
90 13 104
98 17 123
112 76 145
107 120 144
99 110 134
76 85 113
109 120 146
133 150 172
110 119 142
85 72 62
87 74 60
97 80 66
96 80 66
91 77 63
92 79 63
126 140 160
134 152 176
120 138 154
90 121 112
101 137 123
96 131 120
87 121 112
105 141 129
91 123 113
98 118 130
123 138 158
127 143 166
127 146 170
124 141 164
120 137 158
131 147 169
132 148 169
121 139 164
119 138 161
35 85 82
40 92 89
37 88 84
37 90 88
33 81 78
35 85 84
127 144 166
129 147 170
126 142 162
125 141 160
129 147 170
128 144 160
129 148 172
122 133 148
130 149 173
125 144 165
119 134 153
108 159 131
75 170 78
86 122 85
112 104 114
108 87 109
114 91 114
118 118 139
128 145 168
123 136 156
118 133 152
124 143 163
37 85 77
35 78 75
39 82 82
43 90 90
39 81 83
38 80 80
87 99 112
119 75 104
122 96 124
129 131 156
111 141 154
120 135 156
121 134 152
93 92 107
81 4 53
89 5 57
97 5 65
81 52 78
85 42 107
99 96 129
115 122 147
133 150 174
126 142 171
129 147 170
132 148 170
126 144 169
133 151 176
106 104 105
77 65 54
93 78 64
78 66 56
81 70 59
83 82 79
117 129 145
117 133 156
107 127 139
86 116 105
98 131 119
95 129 120
87 118 110
87 117 109
75 106 95
108 126 144
122 139 163
124 142 163
130 147 169
130 149 173
131 150 175
136 154 178
123 143 164
128 144 163
123 140 162
75 102 109
31 76 75
32 82 76
31 76 72
25 62 61
72 106 113
122 141 166
129 147 170
120 135 157
132 150 173
130 148 172
131 151 176
130 145 165
128 143 165
138 156 181
104 137 121
86 186 105
50 197 32
53 211 34
52 206 33
60 197 46
92 97 99
70 69 78
114 125 145
124 139 158
114 124 142
124 140 161
115 132 150
33 70 70
34 71 72
35 77 74
34 73 72
32 68 68
32 69 71
97 118 134
126 136 156
109 69 100
206 223 248
177 199 220
195 211 231
112 112 129
108 114 133
87 89 103
58 40 52
75 68 85
80 69 94
106 110 133
115 119 150
113 124 146
135 153 178
124 137 163
115 130 153
119 132 151
131 146 170
128 146 170
107 116 131
67 62 61
56 44 37
67 57 46
65 63 61
106 121 139
102 114 130
123 140 163
120 164 134
117 178 112
113 181 96
119 192 98
99 140 110
83 109 102
95 115 123
118 134 154
107 127 143
121 137 156
121 139 161
126 144 165
131 149 172
127 150 170
122 140 163
112 131 154
124 142 164
96 114 130
81 99 110
54 69 74
73 96 103
62 78 87
106 124 143
94 106 120
115 131 151
130 151 176
122 138 158
133 148 169
130 147 170
123 140 160
128 145 168
127 144 167
65 170 72
50 200 32
46 185 29
51 203 33
52 209 34
46 183 29
50 198 32
108 139 136
118 132 153
113 122 139
114 131 151
114 131 152
118 131 151
96 112 129
31 67 68
35 76 72
67 93 97
139 174 189
117 148 158
142 167 187
125 141 163
144 163 189
186 209 239
191 213 243
165 177 192
137 151 169
124 135 156
118 131 153
105 108 128
115 127 145
124 131 157
121 136 158
115 122 145
119 130 152
129 149 175
128 147 170
136 153 175
127 141 161
124 138 160
111 125 144
111 124 144
97 108 124
92 102 115
65 67 75
94 105 121
121 137 157
99 114 132
119 159 134
128 199 107
127 206 94
123 202 91
126 203 91
123 200 91
112 176 95
112 127 143
120 139 159
125 142 163
127 146 170
133 151 175
128 145 167
121 143 166
120 138 156
125 143 164
132 151 175
127 146 170
125 142 163
117 135 153
96 110 126
105 121 139
110 128 147
114 133 151
111 128 146
139 159 175
145 169 168
158 191 178
161 194 179
155 186 176
146 169 174
122 141 164
137 156 181
68 198 71
47 189 29
44 179 28
51 202 32
44 170 27
48 192 30
50 202 32
118 159 151
131 147 171
132 151 175
116 135 153
122 140 164
134 150 172
113 132 152
64 79 88
97 126 134
157 192 207
164 208 232
160 207 235
165 211 235
158 191 211
147 172 192
125 142 166
123 141 162
133 150 173
136 154 178
122 139 163
127 145 169
135 152 176
136 155 181
131 148 172
127 145 168
132 146 170
131 151 176
130 147 169
128 146 170
127 143 164
118 134 152
130 153 175
116 131 151
125 142 164
118 132 152
127 144 166
126 142 164
134 154 181
122 135 153
120 148 149
124 195 97
116 192 87
122 201 90
120 193 88
129 208 93
125 199 90
106 182 80
102 124 131
128 146 168
113 131 147
127 148 172
127 145 166
132 150 172
137 156 181
135 155 181
135 155 181
116 134 154
114 133 153
137 155 178
131 150 174
131 151 175
125 143 164
112 132 153
125 143 164
131 150 175
173 200 180
168 199 181
159 196 185
156 195 185
158 196 185
166 200 185
149 183 172
122 148 160
44 177 27
42 168 25
48 191 30
47 189 29
48 188 30
41 174 27
45 177 28
94 151 124
130 150 175
125 145 162
128 147 170
122 140 166
116 135 158
101 120 139
81 96 107
145 190 188
169 213 235
161 208 235
161 208 235
162 209 235
169 213 235
158 191 206
131 150 169
129 149 166
135 152 173
134 151 172
133 151 175
121 135 157
133 149 173
131 150 176
135 151 172
128 145 169
130 147 170
133 145 174
111 121 136
131 147 169
127 145 169
129 147 170
126 144 165
129 147 171
132 150 175
127 147 168
124 141 163
133 151 175
130 147 169
128 148 172
131 161 163
119 192 87
110 179 80
111 179 82
115 191 85
105 174 79
123 197 88
113 186 80
117 156 133
118 141 157
119 144 157
135 155 181
137 156 181
130 150 172
134 152 176
127 146 170
124 143 165
140 157 181
135 154 178
130 146 167
135 155 181
131 148 170
132 152 178
125 144 167
131 151 176
129 148 155
167 194 174
168 201 185
161 197 185
162 198 185
162 198 185
168 201 185
168 197 175
120 143 155
81 152 97
44 178 28
44 182 27
38 152 25
43 170 27
44 183 27
44 178 28
115 152 150
124 139 159
131 155 175
133 153 169
127 145 167
124 142 164
109 127 145
104 138 134
148 203 191
166 207 224
171 211 233
169 213 235
171 214 235
171 213 231
167 203 219
136 161 180
127 146 169
136 154 178
126 141 161
132 150 172
134 152 175
132 151 175
129 147 170
128 146 169
136 156 177
126 141 169
132 151 176
97 112 130
110 137 161
116 142 166
112 132 157
121 137 158
132 150 175
124 142 167
129 148 171
137 156 181
137 156 178
136 154 177
127 144 164
122 160 144
112 179 81
104 170 77
98 162 72
110 179 80
95 160 69
102 168 77
93 169 79
80 168 101
95 164 132
90 154 123
101 153 134
131 154 170
135 154 173
132 153 170
130 149 172
123 144 164
136 154 178
136 156 181
129 154 175
124 142 164
136 154 178
133 152 178
128 147 168
129 152 172
126 148 152
142 173 147
169 200 177
171 203 185
172 204 185
174 205 185
168 199 180
153 188 157
110 154 124
109 144 143
38 160 23
36 150 22
38 155 24
45 179 28
31 131 21
34 141 22
127 152 169
131 154 175
135 153 175
134 152 175
132 154 179
116 133 150
132 151 175
124 157 165
134 171 172
141 173 187
141 170 191
167 204 222
155 197 211
156 196 207
132 157 177
125 152 173
130 147 170
135 154 176
125 143 164
129 149 174
138 157 181
131 150 175
136 153 176
131 151 173
134 153 178
126 142 166
128 146 169
81 121 155
82 123 159
83 124 159
92 128 162
106 134 163
130 147 169
128 141 160
137 155 175
132 152 175
132 151 176
134 154 175
125 145 169
124 156 150
95 152 65
91 148 67
98 164 72
76 139 54
107 175 79
68 165 85
62 160 85
59 166 89
55 161 87
59 166 91
58 168 92
81 158 118
133 153 175
132 150 173
127 147 169
128 150 171
132 151 176
135 155 178
132 152 177
128 146 168
123 143 160
128 150 169
136 155 181
135 152 175
117 137 141
121 149 131
135 173 143
157 175 161
157 174 161
125 144 144
135 160 149
121 145 131
106 132 129
93 126 120
93 139 117
45 117 48
41 162 25
31 130 20
60 129 76
111 145 144
115 139 149
119 148 152
111 139 146
125 144 167
119 143 157
131 150 171
126 151 169
118 138 158
105 147 143
111 142 152
110 138 152
116 146 161
115 152 164
119 151 165
103 134 152
109 131 148
127 147 170
137 156 181
140 156 178
134 154 181
138 157 181
130 148 174
132 151 179
129 147 170
132 149 172
134 149 172
135 153 178
78 117 151
81 122 159
79 119 154
74 111 143
81 118 148
128 147 171
132 151 175
127 145 166
124 143 163
133 154 181
135 155 181
130 152 166
120 140 153
109 151 115
97 160 70
95 159 69
104 169 76
95 178 83
65 167 89
55 155 85
57 158 86
58 160 85
59 167 91
59 169 92
58 163 88
111 155 151
137 156 181
128 150 171
138 156 181
137 156 181
138 157 181
131 150 175
132 149 170
137 156 181
127 148 170
131 150 175
134 152 175
130 150 170
116 139 126
110 134 121
101 124 117
109 132 122
89 109 103
103 129 116
107 133 121
101 122 129
95 127 128
92 120 120
95 121 119
62 95 78
59 80 70
61 107 79
96 126 124
116 141 154
117 139 152
113 144 146
120 142 158
121 144 165
128 148 169
124 145 163
120 148 159
112 139 157
93 125 133
111 141 155
108 144 153
111 145 160
115 147 162
99 123 137
132 154 178
129 147 171
139 157 181
131 147 171
130 149 172
137 154 178
128 147 171
137 156 181
138 156 181
132 151 176
132 153 178
133 150 173
81 123 159
81 119 152
80 118 149
77 114 150
75 113 148
93 123 152
132 153 173
127 147 166
129 146 169
118 139 154
128 146 167
120 141 155
111 135 141
117 138 151
95 129 101
89 143 74
78 136 60
55 140 73
51 144 77
54 150 83
53 152 79
52 147 79
54 154 85
53 151 82
56 158 86
73 148 105
128 146 165
139 157 181
133 150 170
131 150 169
135 153 176
136 154 176
136 156 175
126 147 164
129 148 169
130 150 170
123 141 158
109 132 140
109 134 127
98 117 107
103 126 114
111 135 122
103 127 116
97 123 108
111 134 135
121 142 155
113 141 150
130 148 170
107 133 137
90 125 113
110 134 150
109 142 140
115 142 150
114 142 153
122 141 161
123 144 160
120 140 157
116 141 158
127 146 168
127 149 170
112 136 144
122 143 164
93 117 129
104 135 149
100 127 139
99 127 138
84 110 121
122 146 164
133 154 179
119 136 155
131 149 170
121 139 161
136 156 180
132 149 173
137 156 181
130 152 174
107 139 155
82 129 146
90 129 150
102 134 154
69 101 130
68 103 132
64 94 120
70 105 132
72 109 137
101 132 157
117 133 152
131 149 172
125 146 164
115 137 151
123 144 164
106 137 126
122 145 158
102 131 124
93 117 115
77 101 92
70 116 73
48 133 71
47 129 70
47 126 70
51 134 76
54 153 83
50 140 77
54 146 80
51 142 76
50 142 74
102 130 128
126 148 165
134 153 178
128 147 164
134 153 171
133 155 172
131 153 172
126 145 170
129 150 171
132 150 169
132 151 173
129 148 171
112 131 135
102 122 126
83 103 86
94 113 106
85 107 88
93 112 106
112 136 145
118 141 154
122 141 165
132 150 172
121 142 155
119 142 157
124 145 160
118 137 164
130 148 179
132 146 185
129 144 187
133 153 181
126 146 168
130 149 171
124 144 165
115 139 154
113 131 153
117 134 150
100 123 132
102 119 132
76 105 103
97 112 124
114 132 148
113 130 149
130 146 167
125 144 168
132 150 173
126 144 167
127 145 169
132 152 176
107 139 159
75 127 139
64 123 137
59 111 124
61 120 134
60 119 132
